<?xml version="1.0" standalone="no"?>
<!DOCTYPE svg PUBLIC "-//W3C//DTD SVG 20010904//EN"
 "http://www.w3.org/TR/2001/REC-SVG-20010904/DTD/svg10.dtd">
<svg version="1.0" xmlns="http://www.w3.org/2000/svg"
 width="1659.000000pt" height="1490.000000pt" viewBox="0 0 1659.000000 1490.000000"
 preserveAspectRatio="xMidYMid meet">

<g transform="translate(0.000000,1490.000000) scale(0.100000,-0.100000)"
fill="#000000" stroke="none">
<path d="M684 14816 c-152 -35 -268 -100 -384 -216 -170 -170 -236 -343 -227
-590 3 -102 9 -140 31 -205 72 -211 208 -368 401 -464 124 -62 188 -75 350
-76 119 0 151 3 215 23 140 44 232 97 323 186 100 98 165 198 209 326 31 90
32 102 32 240 1 167 -12 228 -75 356 -93 190 -268 339 -474 404 -90 29 -307
37 -401 16z m342 -80 c202 -52 370 -188 460 -371 59 -120 77 -197 77 -320 1
-392 -316 -708 -708 -708 -123 0 -201 19 -320 77 -366 180 -502 639 -293 994
42 73 177 208 250 250 65 39 172 78 249 91 71 13 210 6 285 -13z"/>
<path d="M745 14606 c-57 -18 -99 -42 -141 -79 -20 -17 -64 -45 -97 -62 -104
-51 -125 -121 -91 -296 9 -46 16 -120 16 -163 -1 -89 6 -109 46 -130 22 -11
31 -27 45 -83 38 -144 120 -268 188 -286 28 -8 23 10 -8 27 -70 36 -134 143
-169 280 -13 52 -20 66 -35 66 -35 0 -67 75 -45 106 14 19 15 19 39 -4 32 -30
37 -22 48 82 5 44 21 123 36 173 l26 93 36 -29 c88 -69 187 -99 351 -107 63
-3 130 -10 148 -16 42 -12 70 -66 79 -148 6 -64 18 -74 48 -40 23 26 35 17 35
-26 0 -39 -39 -84 -72 -84 -11 0 -18 -5 -15 -12 6 -19 -21 -105 -55 -171 -57
-113 -136 -178 -248 -203 -51 -11 -53 -12 -18 -13 21 -1 61 8 88 18 106 40
180 132 232 285 22 66 31 81 55 91 16 7 34 24 41 39 15 34 16 83 1 92 -8 4 -9
34 -5 93 23 305 25 290 -63 374 -64 61 -151 110 -238 132 -69 18 -203 18 -258
1z"/>
<path d="M663 14073 c-26 -10 -12 -18 31 -18 34 0 42 3 34 13 -10 12 -42 15
-65 5z"/>
<path d="M993 14073 c-26 -10 -12 -18 32 -18 39 0 43 2 28 13 -17 12 -38 14
-60 5z"/>
<path d="M856 14040 c-3 -8 1 -40 9 -70 30 -104 30 -100 2 -100 -14 0 -29 5
-32 10 -8 13 -25 13 -25 0 0 -17 46 -33 74 -26 30 7 33 30 12 91 -8 22 -18 56
-24 75 -6 24 -11 30 -16 20z"/>
<path d="M906 13755 c-7 -18 -67 -20 -84 -3 -6 6 -15 8 -19 4 -5 -4 1 -14 12
-23 31 -23 115 -3 115 28 0 15 -17 10 -24 -6z"/>
<path d="M7054 14025 c-146 -32 -266 -98 -380 -210 -92 -90 -149 -181 -191
-300 -26 -75 -28 -91 -28 -240 0 -141 3 -168 23 -230 87 -259 288 -453 542
-521 90 -25 300 -25 389 0 441 121 683 579 533 1005 -41 115 -86 185 -182 282
-117 118 -231 181 -385 214 -86 18 -239 18 -321 0z m334 -81 c219 -55 414
-239 487 -459 35 -104 44 -248 21 -355 -48 -229 -222 -428 -448 -512 -108 -40
-264 -50 -383 -23 -238 53 -436 235 -511 470 -55 172 -40 342 42 514 38 77 60
108 127 176 181 182 423 251 665 189z"/>
<path d="M7135 13784 c-22 -9 -63 -19 -91 -24 -155 -24 -202 -118 -176 -351
11 -98 11 -114 -3 -129 -34 -37 -8 -120 37 -120 11 0 21 -20 32 -64 21 -84 47
-144 81 -184 27 -33 83 -68 92 -58 3 2 -9 11 -25 20 -39 20 -80 70 -104 125
-14 34 -20 80 -25 200 -7 194 -1 245 37 283 35 35 75 36 127 6 51 -30 136 -30
185 0 44 27 74 28 115 2 46 -27 56 -76 51 -238 -3 -109 -1 -130 9 -116 47 64
-3 -100 -52 -174 -43 -62 -95 -99 -167 -117 -48 -12 -50 -13 -18 -14 49 -1
129 39 172 87 45 49 71 98 93 175 9 31 22 57 29 57 21 0 46 35 53 72 4 29 1
38 -17 51 -21 15 -21 17 -10 91 27 164 -7 394 -57 389 -10 -1 -49 7 -88 18
-99 28 -229 34 -280 13z m-236 -551 c14 -49 14 -53 -4 -53 -20 0 -38 37 -31
66 9 35 24 29 35 -13z m671 -9 c0 -27 -32 -64 -55 -64 -17 0 -19 11 -6 26 5 5
14 26 21 47 10 31 14 36 26 26 8 -6 14 -22 14 -35z"/>
<path d="M7047 13314 c-14 -15 -6 -20 28 -20 19 1 33 6 32 11 -4 12 -50 19
-60 9z"/>
<path d="M7317 13313 c-15 -14 -6 -19 28 -15 19 2 32 8 29 13 -6 10 -48 12
-57 2z"/>
<path d="M7217 13294 c-3 -6 0 -35 9 -64 17 -57 13 -86 -11 -76 -8 3 -22 9
-30 12 -11 4 -13 2 -9 -10 3 -8 14 -18 24 -21 41 -13 71 26 50 65 -6 12 -14
40 -18 63 -4 23 -11 37 -15 31z"/>
<path d="M7160 13050 c0 -24 46 -32 85 -16 45 19 43 31 -3 14 -26 -10 -37 -10
-52 0 -24 15 -30 15 -30 2z"/>
<path d="M3545 12750 c-485 -30 -943 -202 -1340 -504 -103 -78 -288 -257 -379
-366 -723 -865 -754 -2121 -75 -3020 230 -304 492 -523 859 -718 l55 -29 3
-2256 2 -2257 -500 0 c-483 0 -500 -1 -510 -19 -6 -12 -10 -94 -10 -198 l0
-178 78 -75 c91 -87 188 -146 322 -192 l95 -33 6175 0 c5885 0 6178 1 6240 18
134 36 273 116 383 221 l57 54 0 195 c0 168 -2 196 -16 201 -9 3 -236 6 -505
6 l-489 0 0 3305 c0 2961 -2 3310 -15 3343 -20 47 -50 78 -100 105 l-40 22
-3852 3 -3851 2 -7 88 c-37 508 -205 957 -503 1342 -88 113 -285 314 -397 405
-471 381 -1069 571 -1680 535z m471 -135 c1322 -190 2209 -1444 1948 -2753
-57 -286 -188 -597 -356 -845 -118 -175 -317 -386 -488 -519 -108 -83 -346
-237 -465 -299 -178 -94 -394 -166 -610 -204 -124 -23 -414 -31 -545 -16 -295
34 -503 101 -833 270 -476 243 -827 598 -1053 1066 -106 218 -168 416 -211
672 -22 135 -25 501 -5 638 38 252 112 496 217 710 359 732 1061 1215 1882
1295 121 12 387 4 519 -15z m9831 -2335 c18 -10 40 -31 50 -47 17 -26 18 -166
21 -3330 l2 -3303 -5590 0 -5590 0 0 2241 c0 2131 1 2241 18 2233 9 -4 86 -30
169 -58 l152 -51 1 -2012 0 -2013 5250 0 5250 0 0 3010 0 3010 -3737 2 c-2789
2 -3737 6 -3736 14 1 7 8 82 14 168 l13 156 3840 0 c3790 0 3841 0 3873 -20z
m-339 -3328 l2 -2932 -4280 0 -4280 0 0 2108 0 2107 77 50 c483 314 854 818
1009 1370 18 66 38 146 44 178 l11 57 3707 -2 3707 -3 3 -2933z m-6625 -3494
c50 -34 123 -73 162 -87 l70 -26 1180 -3 c1296 -3 1252 -5 1380 57 33 16 89
50 124 75 l65 46 2533 0 2534 0 -3 -132 -3 -133 -6595 0 -6595 0 -3 133 -3
132 2531 0 2531 0 92 -62z m2817 42 c-40 -31 -139 -67 -220 -80 -55 -8 -375
-10 -1200 -8 -1063 3 -1128 4 -1180 22 -65 22 -146 61 -155 76 -4 7 443 10
1387 10 1383 0 1393 -1 1368 -20z m5120 -361 c-51 -45 -194 -119 -285 -146
-57 -17 -319 -18 -6160 -21 -4585 -2 -6119 0 -6175 9 -135 20 -333 110 -394
178 l-19 21 6539 0 6539 -1 -45 -40z"/>
<path d="M3471 11949 c-315 -37 -554 -196 -770 -514 -86 -126 -105 -163 -135
-267 -34 -118 -51 -229 -91 -593 -50 -451 -76 -601 -150 -858 -102 -350 -123
-666 -60 -913 38 -149 140 -338 228 -422 l34 -33 94 57 c154 94 337 170 527
220 134 34 128 36 135 -44 13 -130 58 -225 146 -305 153 -137 417 -123 562 30
71 75 111 166 117 265 3 43 8 81 12 83 13 8 267 -60 366 -98 109 -42 210 -92
321 -159 78 -46 111 -54 99 -22 -3 7 19 46 48 85 141 187 206 403 206 683 0
209 -24 346 -110 626 -70 229 -117 449 -216 1000 -68 381 -124 562 -226 733
-161 270 -376 405 -713 446 -103 13 -315 12 -424 0z m-77 -1016 c83 -63 241
-137 356 -167 156 -41 244 -49 454 -43 206 6 299 23 358 67 l29 21 -3 -568 -4
-568 -26 -98 c-35 -128 -93 -257 -161 -360 -60 -90 -199 -230 -266 -268 l-41
-24 0 -162 c0 -189 -9 -243 -58 -336 -77 -149 -233 -226 -399 -199 -162 27
-276 140 -312 310 -6 29 -11 133 -11 230 l-1 177 -55 40 c-176 125 -337 361
-411 601 l-27 89 -4 481 -3 481 38 6 c124 20 270 144 345 293 24 49 47 99 50
112 6 22 8 21 49 -23 23 -25 70 -66 103 -92z"/>
<path d="M3121 10389 c-52 -21 -82 -50 -79 -78 4 -36 36 -38 84 -6 45 31 93
29 129 -5 12 -11 31 -20 43 -20 17 0 22 6 22 28 0 67 -116 114 -199 81z"/>
<path d="M4165 10374 c-63 -33 -82 -68 -50 -94 13 -10 22 -8 57 16 53 37 112
39 157 7 39 -29 81 -31 81 -3 0 24 -34 58 -77 76 -43 19 -131 18 -168 -2z"/>
<path d="M3781 9814 c-1 -27 -31 -54 -60 -54 -33 0 -61 18 -61 40 0 11 -4 20
-10 20 -5 0 -10 -6 -10 -14 0 -24 34 -56 66 -62 42 -8 88 30 81 66 -4 21 -4
22 -6 4z"/>
<path d="M3558 9476 c25 -28 112 -66 153 -66 38 0 126 39 152 68 15 16 6 17
-153 17 -165 0 -168 0 -152 -19z"/>
<path d="M9254 9029 c-75 -28 -137 -88 -176 -167 l-33 -67 -3 -422 -3 -423
1253 2 1253 3 57 28 c72 35 140 110 168 184 20 54 21 72 18 352 -3 288 -4 297
-27 341 -32 61 -96 126 -156 158 l-50 27 -1125 2 c-1101 2 -1126 2 -1176 -18z
m1886 -389 c0 -20 -7 -20 -790 -20 -783 0 -790 0 -790 20 0 20 7 20 790 20
783 0 790 0 790 -20z m-300 -180 c0 -20 -7 -20 -640 -20 -633 0 -640 0 -640
20 0 20 7 20 640 20 633 0 640 0 640 -20z m-610 -170 c0 -20 -7 -20 -335 -20
-328 0 -335 0 -335 20 0 20 7 20 335 20 328 0 335 0 335 -20z"/>
<path d="M12530 8876 c-205 -46 -339 -242 -300 -439 25 -127 105 -231 220
-286 48 -22 69 -26 155 -26 93 0 105 2 166 32 80 39 150 111 187 191 23 49 27
70 27 152 0 102 -15 150 -72 233 -76 110 -247 174 -383 143z m171 -91 c62 -22
116 -62 150 -111 138 -200 -3 -467 -246 -468 -159 -1 -281 114 -293 275 -8
113 43 214 138 274 73 46 172 57 251 30z"/>
<path d="M6653 7450 c-97 -20 -186 -92 -232 -189 l-26 -56 0 -305 0 -305 36
-65 c23 -43 52 -78 85 -102 95 -73 1 -68 1381 -68 l1244 0 -3 418 c-4 489 -2
478 -102 578 -108 108 3 99 -1251 101 -599 0 -1109 -3 -1132 -7z m1967 -400
c0 -20 -7 -20 -790 -20 -783 0 -790 0 -790 20 0 20 7 20 790 20 783 0 790 0
790 -20z m0 -180 c0 -20 -7 -20 -645 -20 -638 0 -645 0 -645 20 0 20 7 20 645
20 638 0 645 0 645 -20z m-2 -177 l3 -23 -335 0 c-319 0 -336 1 -336 18 0 10
3 22 7 25 4 4 153 6 332 5 l326 -3 3 -22z"/>
<path d="M5477 7280 c-103 -26 -208 -114 -253 -213 -26 -55 -29 -73 -29 -162
0 -93 2 -105 33 -167 140 -284 544 -284 684 0 57 115 50 265 -17 372 -34 53
-110 119 -171 147 -62 28 -182 39 -247 23z m219 -105 c60 -27 115 -81 146
-144 34 -69 32 -187 -4 -257 -15 -28 -48 -70 -73 -92 -111 -97 -279 -97 -390
0 -126 111 -138 296 -27 419 94 105 220 132 348 74z"/>
<path d="M9290 5961 c-94 -29 -177 -101 -219 -190 l-26 -56 -3 -423 -3 -422
1258 2 1258 3 50 27 c60 32 124 97 156 158 23 44 24 53 27 341 3 280 2 298
-18 352 -28 74 -96 149 -168 184 l-57 28 -1115 2 c-613 1 -1126 -2 -1140 -6z
m1850 -401 c0 -20 -7 -20 -790 -20 -783 0 -790 0 -790 20 0 20 7 20 790 20
783 0 790 0 790 -20z m-300 -180 c0 -20 -7 -20 -640 -20 -633 0 -640 0 -640
20 0 20 7 20 640 20 633 0 640 0 640 -20z m-610 -170 c0 -20 -7 -20 -335 -20
-328 0 -335 0 -335 20 0 20 7 20 335 20 328 0 335 0 335 -20z"/>
<path d="M12493 5786 c-138 -45 -234 -156 -263 -303 -32 -160 56 -330 208
-405 63 -31 73 -33 172 -33 87 0 113 4 153 22 71 33 159 122 193 196 26 54 29
74 29 157 0 83 -4 103 -28 156 -36 77 -113 154 -192 191 -48 22 -76 28 -145
30 -51 2 -102 -3 -127 -11z m244 -100 c224 -114 222 -426 -3 -537 -68 -34
-190 -34 -252 -1 -133 71 -200 212 -163 347 48 180 255 275 418 191z"/>
<path d="M15641 9048 c-80 -39 -129 -136 -117 -233 14 -120 145 -286 314 -400
l72 -49 68 47 c149 102 266 236 297 341 39 131 -5 250 -110 297 -72 33 -185
20 -238 -28 -15 -14 -22 -15 -35 -5 -82 58 -173 69 -251 30z"/>
<path d="M660 7870 c-295 -80 -514 -309 -577 -603 -23 -112 -14 -299 21 -402
40 -119 101 -218 186 -305 92 -93 169 -145 280 -187 118 -44 203 -57 330 -50
326 18 593 222 702 537 31 90 32 102 32 240 1 167 -12 228 -75 356 -93 190
-267 339 -474 404 -103 33 -321 38 -425 10z m299 -61 c158 -25 286 -92 402
-209 61 -61 86 -96 123 -171 61 -124 79 -200 79 -324 1 -392 -316 -708 -708
-708 -372 0 -676 282 -711 658 -12 127 28 294 98 413 42 73 177 208 250 250
141 83 313 116 467 91z"/>
<path d="M735 7632 c-63 -22 -79 -33 -218 -154 l-42 -36 -6 -94 c-7 -104 -15
-124 -92 -230 -45 -62 -52 -78 -52 -119 0 -58 19 -86 103 -153 59 -47 61 -51
68 -105 9 -81 26 -115 63 -131 40 -16 78 -1 87 35 l6 25 45 -40 c46 -40 63
-48 63 -30 0 6 -4 10 -8 10 -5 0 -29 21 -54 46 -50 50 -82 129 -94 228 -5 42
-13 61 -35 82 -28 27 -37 63 -23 98 9 23 19 20 34 -11 12 -28 13 -27 25 32 11
49 74 208 90 223 2 2 19 -7 37 -21 55 -41 112 -66 239 -102 137 -39 166 -54
175 -91 11 -43 -3 -255 -20 -311 -29 -94 -152 -203 -229 -203 -15 0 -27 -4
-27 -10 0 -28 109 9 175 59 37 28 55 37 55 27 0 -8 10 -27 23 -41 24 -29 76
-37 101 -15 21 17 36 74 36 141 0 60 -2 56 92 179 26 34 50 76 53 94 9 46 -10
110 -55 186 -20 36 -65 120 -99 187 -33 67 -76 137 -94 156 -89 88 -297 132
-422 89z"/>
<path d="M691 7087 c-15 -18 -2 -30 16 -15 11 9 19 9 34 0 15 -10 19 -9 19 2
0 26 -50 35 -69 13z"/>
<path d="M998 7093 c-32 -8 -19 -18 22 -18 36 0 39 1 24 12 -10 7 -20 12 -23
12 -3 -1 -14 -3 -23 -6z"/>
<path d="M870 7057 c0 -8 9 -40 20 -72 16 -46 17 -60 8 -67 -18 -11 -36 -10
-43 2 -8 13 -25 13 -25 0 0 -15 39 -32 60 -25 35 11 42 39 20 87 -11 23 -20
53 -20 66 0 12 -4 22 -10 22 -5 0 -10 -6 -10 -13z"/>
<path d="M914 6809 c-4 -7 -23 -9 -52 -5 -39 5 -43 4 -32 -9 7 -8 23 -15 36
-15 31 0 74 17 74 30 0 13 -17 13 -26 -1z"/>
<path d="M15182 7574 c-12 -8 -38 -46 -56 -83 -19 -37 -41 -73 -49 -79 -8 -7
-52 -19 -98 -27 -91 -16 -123 -37 -138 -91 -14 -51 -2 -81 56 -137 76 -72 77
-75 62 -172 -14 -99 -4 -136 45 -166 46 -28 89 -24 160 16 35 19 72 35 84 35
12 0 50 -16 85 -35 83 -46 125 -46 173 -2 40 37 44 61 30 180 l-9 67 67 69
c61 64 66 72 66 114 0 77 -36 106 -159 126 -35 6 -70 16 -77 22 -8 6 -31 43
-51 81 -23 44 -46 74 -64 84 -37 19 -99 18 -127 -2z"/>
<path d="M13294 2590 c-11 -4 -33 -22 -47 -40 l-27 -32 0 -256 c0 -186 4 -264
13 -282 19 -38 74 -70 120 -70 39 0 39 0 33 -32 -3 -18 -20 -52 -36 -76 -56
-80 -35 -117 63 -115 108 3 224 85 243 171 3 15 7 33 10 40 2 9 66 12 272 12
371 0 352 -19 352 353 0 237 -1 245 -23 278 -40 60 -32 59 -512 58 -242 0
-449 -4 -461 -9z m854 -192 c3 -17 -21 -18 -392 -18 -323 0 -396 2 -396 13 0
8 3 17 7 20 4 4 180 6 392 5 358 -3 386 -4 389 -20z m0 -150 c3 -17 -21 -18
-392 -18 -323 0 -396 2 -396 13 0 8 3 17 7 20 4 4 180 6 392 5 358 -3 386 -4
389 -20z m0 -150 c3 -17 -21 -18 -392 -18 -323 0 -396 2 -396 13 0 8 3 17 7
20 4 4 180 6 392 5 358 -3 386 -4 389 -20z"/>
<path d="M11211 2079 c-122 -21 -253 -93 -345 -190 -73 -77 -115 -147 -148
-244 -32 -98 -33 -278 -1 -380 60 -191 226 -357 418 -418 102 -32 281 -32 380
1 96 32 166 74 241 144 81 76 131 152 166 253 158 458 -231 914 -711 834z
m254 -44 c214 -54 386 -226 440 -440 19 -76 19 -202 0 -284 -15 -62 -66 -171
-105 -221 l-19 -25 -23 21 c-13 12 -34 27 -47 34 -39 20 -253 90 -276 90 -11
0 -36 -13 -55 -30 -44 -37 -68 -37 -115 0 -21 17 -45 30 -54 30 -34 0 -257
-81 -304 -110 l-48 -30 -39 63 c-61 94 -91 201 -91 317 0 55 7 120 16 154 55
206 226 375 435 430 73 19 211 20 285 1z"/>
<path d="M11251 1940 c-109 -23 -203 -96 -253 -198 -30 -60 -33 -75 -33 -157
0 -78 4 -98 28 -150 67 -143 203 -224 357 -213 170 12 302 134 332 305 35 205
-118 399 -327 417 -33 3 -80 1 -104 -4z m261 -315 c24 -20 40 -25 85 -25 l56
0 -6 -53 c-19 -184 -197 -318 -377 -285 -145 26 -255 142 -267 280 l-6 58 211
0 c210 0 211 0 239 25 15 13 30 25 32 25 2 0 16 -11 33 -25z"/>
<path d="M11084 1535 c-16 -16 -24 -34 -22 -48 4 -29 26 -28 41 3 19 38 53 38
75 1 9 -17 23 -31 30 -31 21 0 13 50 -13 75 -32 33 -78 33 -111 0z"/>
<path d="M11456 1539 c-17 -14 -26 -30 -26 -50 0 -38 22 -38 37 2 10 25 16 30
40 27 17 -2 32 -12 40 -28 14 -29 36 -33 41 -7 5 24 -51 77 -81 77 -13 0 -36
-9 -51 -21z"/>
<path d="M11145 1370 c-10 -17 5 -31 59 -56 72 -33 171 -33 244 1 47 22 63 41
46 57 -3 4 -29 -6 -57 -20 -73 -38 -163 -38 -231 1 -56 31 -53 30 -61 17z"/>
</g>
</svg>
