<?xml version="1.0" standalone="no"?>
<!DOCTYPE svg PUBLIC "-//W3C//DTD SVG 20010904//EN"
 "http://www.w3.org/TR/2001/REC-SVG-20010904/DTD/svg10.dtd">
<svg version="1.0" xmlns="http://www.w3.org/2000/svg"
 width="948.000000pt" height="948.000000pt" viewBox="0 0 948.000000 948.000000"
 preserveAspectRatio="xMidYMid meet">

<g transform="translate(0.000000,948.000000) scale(0.100000,-0.100000)"
fill="#000000" stroke="none">
<path d="M4585 6812 c-91 -33 -1839 -678 -3105 -1147 -173 -64 -319 -120 -323
-124 -10 -10 -31 -2 1938 -729 l1560 -576 85 0 c82 1 94 4 315 88 127 48 894
332 1706 631 811 299 1498 553 1525 564 47 18 48 19 24 29 -94 36 -649 241
-3220 1189 -348 128 -353 129 -505 75z"/>
<path d="M1500 4665 l0 -546 78 3 77 3 3 501 c3 576 9 539 -92 568 -30 9 -57
16 -60 16 -3 0 -6 -245 -6 -545z"/>
<path d="M2790 4189 c0 -626 0 -630 78 -789 41 -84 58 -107 156 -205 69 -69
147 -134 206 -173 303 -200 716 -325 1233 -373 184 -17 585 -7 752 19 274 43
554 121 780 220 351 152 601 395 665 647 19 74 20 111 20 643 0 447 -3 563
-12 559 -366 -139 -1812 -665 -1857 -674 -48 -10 -81 -11 -127 -4 -38 6 -422
142 -974 345 -501 185 -913 336 -916 336 -2 0 -4 -248 -4 -551z"/>
<path d="M1502 3933 c-50 -24 -86 -92 -79 -150 6 -58 31 -92 90 -122 166 -83
303 163 148 266 -41 28 -110 30 -159 6z"/>
<path d="M1311 3213 c-57 -164 -106 -304 -109 -310 -3 -10 75 -13 372 -13 207
0 376 2 376 4 0 6 -211 610 -214 614 -2 1 -19 -4 -39 -13 -77 -32 -165 -29
-269 10 -9 4 -44 -83 -117 -292z"/>
</g>
</svg>
