<svg version="1.1" id="Layer_1" xmlns="http://www.w3.org/2000/svg" xmlns:xlink="http://www.w3.org/1999/xlink" x="0px" y="0px"
	 width="100%" viewBox="0 0 3853 948" enable-background="new 0 0 3853 948" xml:space="preserve">
<path fill="#FFFFFF" opacity="1.000000" stroke="none" 
	d="
M2788.000000,949.000000 
	C1858.666626,949.000000 929.833313,949.000000 1.000000,949.000000 
	C1.000000,633.000000 1.000000,317.000000 1.000000,1.000000 
	C1285.333374,1.000000 2569.666748,1.000000 3854.000000,1.000000 
	C3854.000000,317.000000 3854.000000,633.000000 3854.000000,949.000000 
	C3498.833252,949.000000 3143.666748,949.000000 2788.000000,949.000000 
M190.528595,632.895264 
	C190.630188,632.603271 190.731766,632.311340 190.963242,631.257019 
	C183.753693,610.812805 176.544144,590.368591 169.167694,569.451050 
	C162.400345,576.896790 154.119843,573.440491 146.572098,573.979614 
	C145.043777,574.088745 143.073105,573.795105 141.957932,572.887024 
	C137.356567,569.139954 135.948349,571.980957 134.231674,576.333191 
	C127.992249,594.563782 121.752831,612.794434 115.155525,632.070679 
	C138.723663,633.640442 161.869659,632.917053 185.827621,632.976318 
	C187.224045,632.928650 188.620468,632.881042 190.528595,632.895264 
M1471.966553,491.344452 
	C1471.295654,491.192871 1470.624756,491.041321 1469.180908,490.985870 
	C1463.871948,492.961273 1458.679199,495.369995 1453.232056,496.829681 
	C1437.791382,500.967346 1422.249512,504.158875 1406.143311,505.304230 
	C1392.184937,506.296844 1378.572266,505.721466 1365.018188,502.937408 
	C1348.921753,499.631165 1335.224243,492.072693 1325.787476,478.198425 
	C1318.311523,467.206940 1316.038696,454.414642 1315.142090,441.560028 
	C1314.062256,426.079529 1315.411011,410.632385 1321.150879,396.045227 
	C1324.766357,386.856842 1330.238647,378.850250 1338.482178,372.733704 
	C1350.351196,363.927277 1364.026123,360.163452 1378.148682,359.253662 
	C1397.707886,357.993652 1417.397461,358.451385 1436.525879,363.860840 
	C1448.005981,367.107422 1459.389282,370.696838 1470.831787,374.136932 
	C1470.831787,350.873962 1470.831787,327.090729 1470.831787,302.918427 
	C1466.180786,301.424957 1461.559082,299.915985 1456.921753,298.456329 
	C1440.526978,293.295807 1423.692993,289.922028 1406.593140,289.206299 
	C1391.206055,288.562256 1375.741821,289.543274 1360.318848,290.034363 
	C1345.880493,290.494171 1331.886841,293.664124 1318.202637,298.065033 
	C1286.145874,308.374664 1261.511230,327.813324 1246.421387,358.249603 
	C1235.575928,380.125000 1232.027710,403.813477 1231.088013,427.931305 
	C1230.838623,434.338043 1231.852051,440.783600 1231.961304,447.216797 
	C1232.196045,461.055756 1234.857910,474.449921 1239.020996,487.575745 
	C1248.556763,517.640625 1267.169556,540.448303 1294.613403,555.847107 
	C1320.617188,570.437744 1349.269287,575.078064 1378.492920,575.754822 
	C1394.578491,576.127319 1410.849487,574.931519 1426.800781,572.731628 
	C1440.870972,570.791138 1454.598145,566.406189 1468.514526,563.268799 
	C1471.099609,562.686035 1472.063232,561.658752 1472.046753,558.982300 
	C1471.908569,536.655396 1471.888916,514.327698 1471.966553,491.344452 
M577.388977,461.931305 
	C588.633545,457.762695 599.873962,453.582672 611.123535,449.427582 
	C645.481689,436.737335 679.842529,424.054047 714.204224,411.373199 
	C742.179260,401.049255 770.154053,390.724518 798.135132,380.417053 
	C808.692444,376.528076 819.267273,372.686829 830.348694,368.635681 
	C829.417419,367.886139 829.079041,367.447479 828.638428,367.283234 
	C814.364014,361.963501 800.088745,356.645752 785.795166,351.377869 
	C751.580750,338.768158 717.337402,326.236511 683.142090,313.575287 
	C644.233093,299.168701 605.373901,284.627777 566.473389,270.197998 
	C538.361633,259.770172 510.237793,249.373764 482.076538,239.080460 
	C473.147552,235.816818 464.122803,235.976349 455.189026,239.366684 
	C447.158661,242.414185 439.126648,245.458237 431.072449,248.442017 
	C400.373840,259.814636 369.672943,271.181152 338.959656,282.514099 
	C307.334656,294.183472 275.690125,305.799835 244.061661,317.459778 
	C204.527008,332.034332 164.993134,346.611084 125.477600,361.237396 
	C119.917747,363.295319 114.463730,365.639160 107.623009,368.388275 
	C123.085182,374.132385 137.050079,379.342896 151.031174,384.509644 
	C185.387131,397.206055 219.760544,409.855347 254.108200,422.574158 
	C290.280731,435.968689 326.415985,449.463959 362.596497,462.836823 
	C394.058716,474.465759 425.519928,486.100250 457.076721,497.468231 
	C464.478119,500.134521 472.422180,500.424133 479.945892,497.872437 
	C491.760681,493.865387 503.384216,489.293762 515.083496,484.946991 
	C535.591736,477.327240 556.096069,469.696869 577.388977,461.931305 
M277.915314,573.612671 
	C279.047516,576.646484 279.751556,579.936829 281.387970,582.668579 
	C287.645538,593.114807 295.036346,602.515686 304.641479,610.351929 
	C321.253784,623.904907 339.609802,634.236633 359.837067,640.842834 
	C373.977692,645.461243 388.628235,648.568176 403.129333,652.021301 
	C424.301697,657.062988 445.920380,658.431335 467.585266,658.919556 
	C475.169739,659.090515 482.818695,658.735352 490.361908,657.917114 
	C506.278381,656.190552 522.271545,654.696899 538.000671,651.831360 
	C559.921692,647.837708 581.056152,640.821716 601.208801,631.256042 
	C619.280334,622.678162 635.371460,611.380188 648.054321,595.543701 
	C658.427246,582.591431 664.277100,568.362488 664.100891,551.468506 
	C663.756836,518.476624 664.000000,485.478607 664.000000,452.483124 
	C664.000000,450.735809 664.000000,448.988525 664.000000,446.926880 
	C653.955322,450.577118 644.523865,453.966919 635.119141,457.429230 
	C607.137756,467.730347 579.157410,478.034241 551.195312,488.387604 
	C532.957275,495.140533 514.833130,502.211823 496.495789,508.680878 
	C487.981171,511.684692 479.206116,514.390869 470.322052,515.792053 
	C459.938141,517.429871 450.658173,511.906311 441.247650,508.530914 
	C411.658264,497.917603 382.230194,486.853943 352.753998,475.926117 
	C337.102722,470.123627 321.496704,464.199036 305.840332,458.410492 
	C295.389099,454.546387 284.885193,450.824829 274.000000,446.893250 
	C274.000000,449.144623 274.000000,450.961945 274.000000,452.779266 
	C274.000000,484.941528 273.779022,517.106384 274.157471,549.264221 
	C274.250488,557.170349 276.298615,565.053528 277.915314,573.612671 
M2062.558105,501.940765 
	C2069.252441,483.677002 2071.997314,464.577881 2072.757080,445.360352 
	C2073.322510,431.053070 2071.846436,416.647675 2070.964355,402.305389 
	C2069.997559,386.587952 2066.119629,371.519226 2060.055664,356.987183 
	C2050.927246,335.111237 2036.338989,318.230774 2015.426270,306.726044 
	C1995.133911,295.562622 1973.063721,290.596954 1950.417114,289.313873 
	C1932.814819,288.316589 1915.058472,288.174469 1897.346313,290.792542 
	C1878.961914,293.510010 1861.440674,298.224335 1845.030396,306.983704 
	C1826.141479,317.066101 1812.702393,332.457581 1803.440308,351.324036 
	C1791.766602,375.102997 1789.161865,400.988617 1788.094727,427.016205 
	C1787.804810,434.086212 1788.827759,441.200256 1788.968140,448.299591 
	C1789.335693,466.894867 1792.494263,484.930328 1798.963379,502.407379 
	C1806.566040,522.946899 1818.840332,539.757385 1837.171387,552.062439 
	C1858.292480,566.240295 1882.020264,572.641052 1906.891846,574.798645 
	C1919.984497,575.934509 1933.256592,574.992859 1946.447632,575.006165 
	C1959.959961,575.019775 1973.098755,572.570190 1986.061646,568.993652 
	C2005.694214,563.576904 2023.372681,554.642761 2038.177856,540.368774 
	C2049.249268,529.694763 2056.565674,516.725342 2062.558105,501.940765 
M2352.063965,334.375153 
	C2344.126221,326.598114 2337.119629,317.445374 2328.065430,311.317780 
	C2306.240479,296.547180 2281.008301,290.608398 2255.098389,289.297852 
	C2237.489502,288.407135 2219.700684,289.827118 2202.060303,291.130890 
	C2183.871582,292.475189 2166.803223,298.177704 2150.617676,306.704895 
	C2131.481689,316.786438 2117.911621,332.192444 2108.518066,351.177002 
	C2096.922119,374.612823 2094.291260,400.174561 2093.103516,425.855469 
	C2092.761475,433.253571 2093.865479,440.706726 2093.960938,448.139069 
	C2094.201904,466.928101 2097.548340,485.115692 2104.022217,502.738342 
	C2112.965820,527.085205 2128.785645,545.545349 2151.606445,557.884460 
	C2175.118896,570.597595 2200.773682,574.925293 2227.022705,575.814697 
	C2239.343262,576.232178 2251.745361,574.872009 2264.084229,573.960815 
	C2283.646729,572.516113 2302.184082,567.029297 2319.396729,557.774658 
	C2337.362061,548.115356 2351.456543,534.419922 2361.087646,516.071106 
	C2373.175537,493.042114 2376.770264,468.133179 2377.784424,442.788147 
	C2378.330322,429.146362 2377.236816,415.357361 2375.822266,401.744965 
	C2374.718018,391.118103 2372.623291,380.484833 2369.802002,370.173615 
	C2366.318848,357.443207 2361.069336,345.320801 2352.063965,334.375153 
M1583.000000,515.500000 
	C1583.000000,499.745361 1583.000000,483.990723 1583.000000,468.364014 
	C1615.050781,468.364014 1646.437256,468.364014 1678.306885,468.364014 
	C1678.306885,502.779572 1678.306885,536.832886 1678.306885,570.746887 
	C1705.729736,570.746887 1732.665039,570.746887 1759.734131,570.746887 
	C1759.734131,478.121155 1759.734131,385.748718 1759.734131,293.299805 
	C1732.413818,293.299805 1705.360352,293.299805 1677.822754,293.299805 
	C1677.822754,327.651489 1677.822754,361.706299 1677.822754,395.635925 
	C1645.949097,395.635925 1614.562622,395.635925 1582.692993,395.635925 
	C1582.692993,361.220306 1582.692993,327.167023 1582.692993,293.253052 
	C1555.270264,293.253052 1528.334961,293.253052 1501.265869,293.253052 
	C1501.265869,385.878754 1501.265869,478.251160 1501.265869,570.700134 
	C1528.586182,570.700134 1555.639648,570.700134 1583.000000,570.700134 
	C1583.000000,552.434631 1583.000000,534.467346 1583.000000,515.500000 
M2774.435791,555.056030 
	C2800.151855,570.177734 2828.629150,574.486267 2857.730957,575.878967 
	C2866.951904,576.320312 2876.270264,575.682983 2885.491699,574.911560 
	C2897.036133,573.945923 2908.643799,572.964844 2920.012451,570.851807 
	C2937.070312,567.681580 2953.221924,561.507568 2968.750244,553.728333 
	C2972.383545,551.908081 2974.166016,549.806396 2974.140869,545.217712 
	C2973.903564,502.053619 2974.000000,458.887726 2974.000000,415.722321 
	C2974.000000,413.939453 2974.000000,412.156616 2974.000000,410.256714 
	C2932.466309,410.256714 2891.401611,410.256714 2850.279785,410.256714 
	C2850.279785,427.247040 2850.279785,443.979340 2850.279785,461.157623 
	C2868.958740,461.157623 2887.361328,461.157623 2905.998779,461.157623 
	C2905.998779,473.582489 2906.070068,485.561401 2905.885742,497.536407 
	C2905.867676,498.701202 2904.426270,500.673340 2903.386719,500.864777 
	C2893.165283,502.746918 2882.922852,505.366730 2872.618164,505.707214 
	C2862.407227,506.044617 2851.945557,504.842194 2841.903809,502.794922 
	C2827.961426,499.952362 2816.427979,492.875885 2808.552002,480.268280 
	C2801.118652,468.369537 2798.769775,455.190857 2798.209961,441.741333 
	C2797.802490,431.945343 2798.789062,421.993011 2800.138184,412.246704 
	C2801.878418,399.677460 2806.591309,388.041016 2815.705811,378.911316 
	C2829.436279,365.157623 2847.045898,360.100586 2865.749268,359.186951 
	C2878.792725,358.549835 2891.962891,359.139618 2904.999756,360.161652 
	C2915.989502,361.023132 2926.929443,362.978333 2937.774658,365.058197 
	C2944.839844,366.413147 2951.696045,368.857971 2958.998535,370.913818 
	C2958.998535,348.289490 2959.044922,325.808960 2958.862549,303.330261 
	C2958.853516,302.197266 2957.072510,300.510132 2955.770996,300.041443 
	C2936.469971,293.091278 2916.260254,290.084930 2896.007812,289.294922 
	C2874.101562,288.440399 2852.075439,287.863312 2830.195068,291.838409 
	C2814.653320,294.661926 2799.506836,298.568237 2785.367920,305.424194 
	C2770.964844,312.408264 2758.018799,321.523438 2747.377930,333.913635 
	C2737.838379,345.021210 2730.067139,357.008057 2725.023926,370.692780 
	C2715.856934,395.568329 2712.765869,421.208588 2714.849365,447.676392 
	C2715.851807,460.406311 2717.488037,472.844604 2720.842773,485.206421 
	C2726.068115,504.460785 2735.289551,521.413513 2749.241455,535.425598 
	C2756.553711,542.769043 2765.486572,548.498779 2774.435791,555.056030 
M3608.500000,293.000000 
	C3581.744141,293.000000 3554.988281,293.000000 3528.310059,293.000000 
	C3528.310059,385.999329 3528.310059,478.384705 3528.310059,570.681885 
	C3598.675781,570.681885 3668.731201,570.681885 3738.662842,570.681885 
	C3738.662842,549.631958 3738.662842,528.901672 3738.662842,507.736786 
	C3695.598877,507.736786 3652.871094,507.736786 3610.371826,507.736786 
	C3610.371826,492.895721 3610.371826,478.496216 3610.371826,463.842896 
	C3648.019531,463.842896 3685.295898,463.842896 3722.770508,463.842896 
	C3722.770508,442.516266 3722.770508,421.453827 3722.770508,399.950806 
	C3685.148193,399.950806 3647.752686,399.950806 3610.265625,399.950806 
	C3610.265625,385.111694 3610.265625,370.714691 3610.265625,355.880219 
	C3653.256592,355.880219 3695.984375,355.880219 3738.701172,355.880219 
	C3738.701172,334.709564 3738.701172,313.979889 3738.701172,293.000000 
	C3695.435303,293.000000 3652.467773,293.000000 3608.500000,293.000000 
M3210.000488,351.524963 
	C3202.497559,332.019653 3194.994873,312.514343 3187.488770,293.000122 
	C3159.537842,293.000122 3131.880127,292.948212 3104.223633,293.133362 
	C3102.618164,293.144104 3100.136230,294.726471 3099.564453,296.171783 
	C3093.518066,311.453644 3087.821045,326.873047 3081.941406,342.221649 
	C3073.581055,364.045837 3065.151123,385.843201 3056.747070,407.650574 
	C3048.169189,429.909058 3039.567627,452.158478 3031.011230,474.425262 
	C3021.877686,498.194092 3012.767822,521.971985 3003.683594,545.759583 
	C3000.511719,554.065002 2997.447021,562.411316 2994.235840,570.999939 
	C3022.006104,570.999939 3049.167725,570.957031 3076.328613,571.061157 
	C3079.297363,571.072510 3080.402344,570.186707 3081.472412,567.274780 
	C3087.865723,549.882263 3094.578369,532.605591 3101.392578,515.372559 
	C3101.960449,513.936401 3104.064941,512.153687 3105.467529,512.143066 
	C3131.129150,511.948853 3156.793213,511.968140 3182.455566,512.105713 
	C3183.641357,512.112122 3185.448242,513.390015 3185.906006,514.509216 
	C3192.987061,531.820251 3200.073975,549.134460 3206.681641,566.628418 
	C3207.969482,570.037903 3209.185791,571.103149 3212.727051,571.082092 
	C3238.389404,570.929260 3264.052979,571.003967 3289.716309,570.988953 
	C3291.105225,570.988159 3292.494141,570.828003 3294.084961,570.729492 
	C3293.260254,568.605713 3292.617188,566.972168 3291.990479,565.332458 
	C3284.797852,546.512878 3277.650635,527.675842 3270.405273,508.876526 
	C3261.653076,486.166718 3252.781250,463.502991 3244.029053,440.793182 
	C3232.669434,411.317596 3221.376465,381.816223 3210.000488,351.524963 
M1166.364990,414.061981 
	C1158.265503,410.725708 1150.347656,406.815186 1142.025879,404.181274 
	C1127.818237,399.684479 1113.230835,396.377991 1099.057983,391.784790 
	C1092.397461,389.626282 1085.937256,386.220337 1080.118896,382.294098 
	C1075.546753,379.208984 1074.812500,373.319305 1076.440063,368.370514 
	C1078.067017,363.423279 1081.366699,359.184570 1087.242065,357.963928 
	C1101.908447,354.916931 1116.530640,353.446350 1131.645264,354.765076 
	C1147.185669,356.120941 1162.363892,358.645721 1177.242065,363.114868 
	C1183.076782,364.867523 1188.751343,367.153198 1194.995850,369.372772 
	C1194.995850,346.862549 1195.054443,325.047089 1194.825073,303.234680 
	C1194.813477,302.127106 1192.486206,300.502319 1190.956665,300.034027 
	C1170.267456,293.699310 1148.906982,290.693848 1127.459473,289.249847 
	C1112.952393,288.273132 1098.282715,289.565460 1083.691528,290.025208 
	C1071.223633,290.418060 1059.170044,293.083313 1047.334717,296.983215 
	C1030.747437,302.449005 1016.518677,311.211639 1006.014343,325.469208 
	C998.071655,336.249969 994.479797,348.434906 992.846497,361.641815 
	C991.057007,376.112152 992.370483,390.220337 996.579163,403.898773 
	C1002.483826,423.089081 1016.617737,435.199249 1033.981445,443.990936 
	C1052.614868,453.425476 1072.722046,458.747101 1092.466309,465.138275 
	C1101.666260,468.116241 1110.802734,471.739960 1119.292725,476.322021 
	C1126.319824,480.114594 1128.126831,487.560760 1126.910889,495.239288 
	C1125.873047,501.794128 1121.471558,506.209442 1115.279297,507.704102 
	C1108.175781,509.418671 1100.768799,510.925110 1093.526611,510.787903 
	C1080.398315,510.539215 1067.105103,510.054871 1054.230347,507.731140 
	C1039.619263,505.094055 1025.351074,500.474884 1011.020264,496.412140 
	C1006.095581,495.016052 1001.431396,492.700806 996.527649,490.757690 
	C996.275818,491.664429 996.040771,492.116638 996.040222,492.569122 
	C996.014099,513.734314 995.959167,534.899902 996.120789,556.063843 
	C996.130615,557.359558 997.603394,559.311340 998.854919,559.814087 
	C1004.105164,561.922852 1009.502136,563.684326 1014.896484,565.413452 
	C1037.519165,572.664978 1060.926636,575.386230 1084.480835,575.768066 
	C1099.412109,576.010254 1114.414917,574.362061 1129.321655,572.906311 
	C1145.354736,571.340515 1160.458374,566.312195 1174.241577,557.905945 
	C1189.057861,548.869629 1200.053589,536.436218 1206.041016,519.938782 
	C1213.551514,499.244873 1212.204834,478.447296 1206.279785,457.730469 
	C1200.327393,436.918304 1185.661621,423.842987 1166.364990,414.061981 
M3359.518066,571.000000 
	C3382.942627,571.000000 3406.367188,571.000000 3430.232910,571.000000 
	C3430.232910,498.298676 3430.232910,426.233368 3430.232910,353.722595 
	C3456.413086,353.722595 3482.148193,353.722595 3507.790771,353.722595 
	C3507.790771,333.325897 3507.790771,313.378113 3507.790771,293.230438 
	C3428.517578,293.230438 3349.453613,293.230438 3270.253418,293.230438 
	C3270.253418,313.526825 3270.253418,333.592102 3270.253418,354.104675 
	C3296.238281,354.104675 3321.973389,354.104675 3348.148926,354.104675 
	C3348.148926,426.617035 3348.148926,498.682343 3348.148926,571.000000 
	C3351.903809,571.000000 3355.214111,571.000000 3359.518066,571.000000 
M2489.000000,433.500000 
	C2489.000000,386.751709 2489.000000,340.003418 2489.000000,293.361145 
	C2461.292725,293.361145 2434.237305,293.361145 2407.380859,293.361145 
	C2407.380859,386.100220 2407.380859,478.477722 2407.380859,570.770142 
	C2476.358887,570.770142 2544.955566,570.770142 2613.732422,570.770142 
	C2613.732422,549.817200 2613.732422,529.094788 2613.732422,507.886505 
	C2572.079590,507.886505 2530.691406,507.886505 2489.000000,507.886505 
	C2489.000000,483.100739 2489.000000,458.800354 2489.000000,433.500000 
M162.000000,414.717987 
	C161.986298,405.112732 158.001572,401.658081 145.393463,400.291748 
	C145.393463,436.819611 145.393463,473.350189 145.393463,509.744293 
	C151.064651,509.744293 156.339417,509.744293 162.000000,509.744293 
	C162.000000,478.215881 162.000000,446.941498 162.000000,414.717987 
M146.976929,527.035217 
	C145.138397,528.368347 143.098343,529.496460 141.497177,531.070984 
	C135.446899,537.020691 135.298782,545.640686 140.951279,552.721436 
	C145.416046,558.314331 154.933105,559.809448 161.278900,555.914917 
	C168.670441,551.378601 170.829056,542.639526 167.188080,534.457947 
	C164.228790,527.808105 154.114212,523.969360 146.976929,527.035217 
z"/>
<path fill="#04E772" opacity="1.000000" stroke="none" 
	d="
M576.995483,462.001129 
	C556.096069,469.696869 535.591736,477.327240 515.083496,484.946991 
	C503.384216,489.293762 491.760681,493.865387 479.945892,497.872437 
	C472.422180,500.424133 464.478119,500.134521 457.076721,497.468231 
	C425.519928,486.100250 394.058716,474.465759 362.596497,462.836823 
	C326.415985,449.463959 290.280731,435.968689 254.108200,422.574158 
	C219.760544,409.855347 185.387131,397.206055 151.031174,384.509644 
	C137.050079,379.342896 123.085182,374.132385 107.623009,368.388275 
	C114.463730,365.639160 119.917747,363.295319 125.477600,361.237396 
	C164.993134,346.611084 204.527008,332.034332 244.061661,317.459778 
	C275.690125,305.799835 307.334656,294.183472 338.959656,282.514099 
	C369.672943,271.181152 400.373840,259.814636 431.072449,248.442017 
	C439.126648,245.458237 447.158661,242.414185 455.189026,239.366684 
	C464.122803,235.976349 473.147552,235.816818 482.076538,239.080460 
	C510.237793,249.373764 538.361633,259.770172 566.473389,270.197998 
	C605.373901,284.627777 644.233093,299.168701 683.142090,313.575287 
	C717.337402,326.236511 751.580750,338.768158 785.795166,351.377869 
	C800.088745,356.645752 814.364014,361.963501 828.638428,367.283234 
	C829.079041,367.447479 829.417419,367.886139 830.348694,368.635681 
	C819.267273,372.686829 808.692444,376.528076 798.135132,380.417053 
	C770.154053,390.724518 742.179260,401.049255 714.204224,411.373199 
	C679.842529,424.054047 645.481689,436.737335 611.123535,449.427582 
	C599.873962,453.582672 588.633545,457.762695 576.995483,462.001129 
z"/>
<path fill="#04E772" opacity="1.000000" stroke="none" 
	d="
M277.681641,573.279968 
	C276.298615,565.053528 274.250488,557.170349 274.157471,549.264221 
	C273.779022,517.106384 274.000000,484.941528 274.000000,452.779266 
	C274.000000,450.961945 274.000000,449.144623 274.000000,446.893250 
	C284.885193,450.824829 295.389099,454.546387 305.840332,458.410492 
	C321.496704,464.199036 337.102722,470.123627 352.753998,475.926117 
	C382.230194,486.853943 411.658264,497.917603 441.247650,508.530914 
	C450.658173,511.906311 459.938141,517.429871 470.322052,515.792053 
	C479.206116,514.390869 487.981171,511.684692 496.495789,508.680878 
	C514.833130,502.211823 532.957275,495.140533 551.195312,488.387604 
	C579.157410,478.034241 607.137756,467.730347 635.119141,457.429230 
	C644.523865,453.966919 653.955322,450.577118 664.000000,446.926880 
	C664.000000,448.988525 664.000000,450.735809 664.000000,452.483124 
	C664.000000,485.478607 663.756836,518.476624 664.100891,551.468506 
	C664.277100,568.362488 658.427246,582.591431 648.054321,595.543701 
	C635.371460,611.380188 619.280334,622.678162 601.208801,631.256042 
	C581.056152,640.821716 559.921692,647.837708 538.000671,651.831360 
	C522.271545,654.696899 506.278381,656.190552 490.361908,657.917114 
	C482.818695,658.735352 475.169739,659.090515 467.585266,658.919556 
	C445.920380,658.431335 424.301697,657.062988 403.129333,652.021301 
	C388.628235,648.568176 373.977692,645.461243 359.837067,640.842834 
	C339.609802,634.236633 321.253784,623.904907 304.641479,610.351929 
	C295.036346,602.515686 287.645538,593.114807 281.387970,582.668579 
	C279.751556,579.936829 279.047516,576.646484 277.681641,573.279968 
z"/>
<path fill="#04E772" opacity="1.000000" stroke="none" 
	d="
M2062.317139,502.258057 
	C2056.565674,516.725342 2049.249268,529.694763 2038.177856,540.368774 
	C2023.372681,554.642761 2005.694214,563.576904 1986.061646,568.993652 
	C1973.098755,572.570190 1959.959961,575.019775 1946.447632,575.006165 
	C1933.256592,574.992859 1919.984497,575.934509 1906.891846,574.798645 
	C1882.020264,572.641052 1858.292480,566.240295 1837.171387,552.062439 
	C1818.840332,539.757385 1806.566040,522.946899 1798.963379,502.407379 
	C1792.494263,484.930328 1789.335693,466.894867 1788.968140,448.299591 
	C1788.827759,441.200256 1787.804810,434.086212 1788.094727,427.016205 
	C1789.161865,400.988617 1791.766602,375.102997 1803.440308,351.324036 
	C1812.702393,332.457581 1826.141479,317.066101 1845.030396,306.983704 
	C1861.440674,298.224335 1878.961914,293.510010 1897.346313,290.792542 
	C1915.058472,288.174469 1932.814819,288.316589 1950.417114,289.313873 
	C1973.063721,290.596954 1995.133911,295.562622 2015.426270,306.726044 
	C2036.338989,318.230774 2050.927246,335.111237 2060.055664,356.987183 
	C2066.119629,371.519226 2069.997559,386.587952 2070.964355,402.305389 
	C2071.846436,416.647675 2073.322510,431.053070 2072.757080,445.360352 
	C2071.997314,464.577881 2069.252441,483.677002 2062.317139,502.258057 
M1919.872437,359.006989 
	C1916.529053,359.672028 1913.126587,360.125610 1909.852417,361.038818 
	C1895.964966,364.912018 1885.650391,372.724548 1879.669678,386.435638 
	C1874.798462,397.603302 1872.957153,409.330414 1872.228760,421.085388 
	C1871.130859,438.805939 1871.820801,456.585083 1878.013062,473.621246 
	C1883.575317,488.924286 1893.761719,499.014038 1909.890381,503.147400 
	C1921.056152,506.008881 1932.178467,506.759155 1943.486938,504.975800 
	C1959.467285,502.455627 1972.461182,495.417145 1980.192627,480.439270 
	C1986.155762,468.886810 1988.224731,456.337341 1988.850220,443.666046 
	C1989.564819,429.189484 1989.176636,414.705383 1986.086060,400.351105 
	C1981.961304,381.194153 1972.349243,366.513336 1952.686279,361.647247 
	C1942.468140,359.118500 1931.460327,359.780273 1919.872437,359.006989 
z"/>
<path fill="#04E772" opacity="1.000000" stroke="none" 
	d="
M2352.275391,334.673645 
	C2361.069336,345.320801 2366.318848,357.443207 2369.802002,370.173615 
	C2372.623291,380.484833 2374.718018,391.118103 2375.822266,401.744965 
	C2377.236816,415.357361 2378.330322,429.146362 2377.784424,442.788147 
	C2376.770264,468.133179 2373.175537,493.042114 2361.087646,516.071106 
	C2351.456543,534.419922 2337.362061,548.115356 2319.396729,557.774658 
	C2302.184082,567.029297 2283.646729,572.516113 2264.084229,573.960815 
	C2251.745361,574.872009 2239.343262,576.232178 2227.022705,575.814697 
	C2200.773682,574.925293 2175.118896,570.597595 2151.606445,557.884460 
	C2128.785645,545.545349 2112.965820,527.085205 2104.022217,502.738342 
	C2097.548340,485.115692 2094.201904,466.928101 2093.960938,448.139069 
	C2093.865479,440.706726 2092.761475,433.253571 2093.103516,425.855469 
	C2094.291260,400.174561 2096.922119,374.612823 2108.518066,351.177002 
	C2117.911621,332.192444 2131.481689,316.786438 2150.617676,306.704895 
	C2166.803223,298.177704 2183.871582,292.475189 2202.060303,291.130890 
	C2219.700684,289.827118 2237.489502,288.407135 2255.098389,289.297852 
	C2281.008301,290.608398 2306.240479,296.547180 2328.065430,311.317780 
	C2337.119629,317.445374 2344.126221,326.598114 2352.275391,334.673645 
M2220.110840,504.605530 
	C2231.229248,506.616180 2242.298096,506.414062 2253.348389,504.013489 
	C2267.180176,501.008667 2278.025879,493.755615 2284.890137,481.279633 
	C2290.883057,470.388153 2293.144043,458.208618 2293.780273,446.100281 
	C2294.832031,426.082672 2294.701904,405.921600 2286.879395,386.897552 
	C2282.491455,376.226257 2274.943359,368.440002 2264.032227,363.901062 
	C2247.719971,357.115356 2230.924072,357.376312 2214.324951,361.243744 
	C2200.479736,364.469452 2190.298096,372.938477 2184.524414,386.672455 
	C2179.816162,397.872223 2177.917480,409.586487 2177.220703,421.346924 
	C2176.180908,438.894440 2176.911133,456.462463 2182.957031,473.377258 
	C2189.170410,490.760284 2201.146729,501.095947 2220.110840,504.605530 
z"/>
<path fill="#04E772" opacity="1.000000" stroke="none" 
	d="
M1583.000000,516.000000 
	C1583.000000,534.467346 1583.000000,552.434631 1583.000000,570.700134 
	C1555.639648,570.700134 1528.586182,570.700134 1501.265869,570.700134 
	C1501.265869,478.251160 1501.265869,385.878754 1501.265869,293.253052 
	C1528.334961,293.253052 1555.270264,293.253052 1582.692993,293.253052 
	C1582.692993,327.167023 1582.692993,361.220306 1582.692993,395.635925 
	C1614.562622,395.635925 1645.949097,395.635925 1677.822754,395.635925 
	C1677.822754,361.706299 1677.822754,327.651489 1677.822754,293.299805 
	C1705.360352,293.299805 1732.413818,293.299805 1759.734131,293.299805 
	C1759.734131,385.748718 1759.734131,478.121155 1759.734131,570.746887 
	C1732.665039,570.746887 1705.729736,570.746887 1678.306885,570.746887 
	C1678.306885,536.832886 1678.306885,502.779572 1678.306885,468.364014 
	C1646.437256,468.364014 1615.050781,468.364014 1583.000000,468.364014 
	C1583.000000,483.990723 1583.000000,499.745361 1583.000000,516.000000 
z"/>
<path fill="#08574D" opacity="1.000000" stroke="none" 
	d="
M2774.061523,555.006714 
	C2765.486572,548.498779 2756.553711,542.769043 2749.241455,535.425598 
	C2735.289551,521.413513 2726.068115,504.460785 2720.842773,485.206421 
	C2717.488037,472.844604 2715.851807,460.406311 2714.849365,447.676392 
	C2712.765869,421.208588 2715.856934,395.568329 2725.023926,370.692780 
	C2730.067139,357.008057 2737.838379,345.021210 2747.377930,333.913635 
	C2758.018799,321.523438 2770.964844,312.408264 2785.367920,305.424194 
	C2799.506836,298.568237 2814.653320,294.661926 2830.195068,291.838409 
	C2852.075439,287.863312 2874.101562,288.440399 2896.007812,289.294922 
	C2916.260254,290.084930 2936.469971,293.091278 2955.770996,300.041443 
	C2957.072510,300.510132 2958.853516,302.197266 2958.862549,303.330261 
	C2959.044922,325.808960 2958.998535,348.289490 2958.998535,370.913818 
	C2951.696045,368.857971 2944.839844,366.413147 2937.774658,365.058197 
	C2926.929443,362.978333 2915.989502,361.023132 2904.999756,360.161652 
	C2891.962891,359.139618 2878.792725,358.549835 2865.749268,359.186951 
	C2847.045898,360.100586 2829.436279,365.157623 2815.705811,378.911316 
	C2806.591309,388.041016 2801.878418,399.677460 2800.138184,412.246704 
	C2798.789062,421.993011 2797.802490,431.945343 2798.209961,441.741333 
	C2798.769775,455.190857 2801.118652,468.369537 2808.552002,480.268280 
	C2816.427979,492.875885 2827.961426,499.952362 2841.903809,502.794922 
	C2851.945557,504.842194 2862.407227,506.044617 2872.618164,505.707214 
	C2882.922852,505.366730 2893.165283,502.746918 2903.386719,500.864777 
	C2904.426270,500.673340 2905.867676,498.701202 2905.885742,497.536407 
	C2906.070068,485.561401 2905.998779,473.582489 2905.998779,461.157623 
	C2887.361328,461.157623 2868.958740,461.157623 2850.279785,461.157623 
	C2850.279785,443.979340 2850.279785,427.247040 2850.279785,410.256714 
	C2891.401611,410.256714 2932.466309,410.256714 2974.000000,410.256714 
	C2974.000000,412.156616 2974.000000,413.939453 2974.000000,415.722321 
	C2974.000000,458.887726 2973.903564,502.053619 2974.140869,545.217712 
	C2974.166016,549.806396 2972.383545,551.908081 2968.750244,553.728333 
	C2953.221924,561.507568 2937.070312,567.681580 2920.012451,570.851807 
	C2908.643799,572.964844 2897.036133,573.945923 2885.491699,574.911560 
	C2876.270264,575.682983 2866.951904,576.320312 2857.730957,575.878967 
	C2828.629150,574.486267 2800.151855,570.177734 2774.061523,555.006714 
z"/>
<path fill="#08574D" opacity="1.000000" stroke="none" 
	d="
M3609.000000,293.000000 
	C3652.467773,293.000000 3695.435303,293.000000 3738.701172,293.000000 
	C3738.701172,313.979889 3738.701172,334.709564 3738.701172,355.880219 
	C3695.984375,355.880219 3653.256592,355.880219 3610.265625,355.880219 
	C3610.265625,370.714691 3610.265625,385.111694 3610.265625,399.950806 
	C3647.752686,399.950806 3685.148193,399.950806 3722.770508,399.950806 
	C3722.770508,421.453827 3722.770508,442.516266 3722.770508,463.842896 
	C3685.295898,463.842896 3648.019531,463.842896 3610.371826,463.842896 
	C3610.371826,478.496216 3610.371826,492.895721 3610.371826,507.736786 
	C3652.871094,507.736786 3695.598877,507.736786 3738.662842,507.736786 
	C3738.662842,528.901672 3738.662842,549.631958 3738.662842,570.681885 
	C3668.731201,570.681885 3598.675781,570.681885 3528.310059,570.681885 
	C3528.310059,478.384705 3528.310059,385.999329 3528.310059,293.000000 
	C3554.988281,293.000000 3581.744141,293.000000 3609.000000,293.000000 
z"/>
<path fill="#08574D" opacity="1.000000" stroke="none" 
	d="
M3210.027832,351.925476 
	C3221.376465,381.816223 3232.669434,411.317596 3244.029053,440.793182 
	C3252.781250,463.502991 3261.653076,486.166718 3270.405273,508.876526 
	C3277.650635,527.675842 3284.797852,546.512878 3291.990479,565.332458 
	C3292.617188,566.972168 3293.260254,568.605713 3294.084961,570.729492 
	C3292.494141,570.828003 3291.105225,570.988159 3289.716309,570.988953 
	C3264.052979,571.003967 3238.389404,570.929260 3212.727051,571.082092 
	C3209.185791,571.103149 3207.969482,570.037903 3206.681641,566.628418 
	C3200.073975,549.134460 3192.987061,531.820251 3185.906006,514.509216 
	C3185.448242,513.390015 3183.641357,512.112122 3182.455566,512.105713 
	C3156.793213,511.968140 3131.129150,511.948853 3105.467529,512.143066 
	C3104.064941,512.153687 3101.960449,513.936401 3101.392578,515.372559 
	C3094.578369,532.605591 3087.865723,549.882263 3081.472412,567.274780 
	C3080.402344,570.186707 3079.297363,571.072510 3076.328613,571.061157 
	C3049.167725,570.957031 3022.006104,570.999939 2994.235840,570.999939 
	C2997.447021,562.411316 3000.511719,554.065002 3003.683594,545.759583 
	C3012.767822,521.971985 3021.877686,498.194092 3031.011230,474.425262 
	C3039.567627,452.158478 3048.169189,429.909058 3056.747070,407.650574 
	C3065.151123,385.843201 3073.581055,364.045837 3081.941406,342.221649 
	C3087.821045,326.873047 3093.518066,311.453644 3099.564453,296.171783 
	C3100.136230,294.726471 3102.618164,293.144104 3104.223633,293.133362 
	C3131.880127,292.948212 3159.537842,293.000122 3187.488770,293.000122 
	C3194.994873,312.514343 3202.497559,332.019653 3210.027832,351.925476 
M3162.944336,423.664154 
	C3156.887939,408.029755 3150.831787,392.395325 3144.775391,376.760925 
	C3144.177979,376.733154 3143.580811,376.705383 3142.983398,376.677612 
	C3133.337646,401.927185 3123.691895,427.176758 3113.921631,452.752167 
	C3133.769043,452.752167 3153.296143,452.752167 3173.799805,452.752167 
	C3170.084229,443.020386 3166.541748,433.741425 3162.944336,423.664154 
z"/>
<path fill="#04E772" opacity="1.000000" stroke="none" 
	d="
M1166.678955,414.277283 
	C1185.661621,423.842987 1200.327393,436.918304 1206.279785,457.730469 
	C1212.204834,478.447296 1213.551514,499.244873 1206.041016,519.938782 
	C1200.053589,536.436218 1189.057861,548.869629 1174.241577,557.905945 
	C1160.458374,566.312195 1145.354736,571.340515 1129.321655,572.906311 
	C1114.414917,574.362061 1099.412109,576.010254 1084.480835,575.768066 
	C1060.926636,575.386230 1037.519165,572.664978 1014.896484,565.413452 
	C1009.502136,563.684326 1004.105164,561.922852 998.854919,559.814087 
	C997.603394,559.311340 996.130615,557.359558 996.120789,556.063843 
	C995.959167,534.899902 996.014099,513.734314 996.040222,492.569122 
	C996.040771,492.116638 996.275818,491.664429 996.527649,490.757690 
	C1001.431396,492.700806 1006.095581,495.016052 1011.020264,496.412140 
	C1025.351074,500.474884 1039.619263,505.094055 1054.230347,507.731140 
	C1067.105103,510.054871 1080.398315,510.539215 1093.526611,510.787903 
	C1100.768799,510.925110 1108.175781,509.418671 1115.279297,507.704102 
	C1121.471558,506.209442 1125.873047,501.794128 1126.910889,495.239288 
	C1128.126831,487.560760 1126.319824,480.114594 1119.292725,476.322021 
	C1110.802734,471.739960 1101.666260,468.116241 1092.466309,465.138275 
	C1072.722046,458.747101 1052.614868,453.425476 1033.981445,443.990936 
	C1016.617737,435.199249 1002.483826,423.089081 996.579163,403.898773 
	C992.370483,390.220337 991.057007,376.112152 992.846497,361.641815 
	C994.479797,348.434906 998.071655,336.249969 1006.014343,325.469208 
	C1016.518677,311.211639 1030.747437,302.449005 1047.334717,296.983215 
	C1059.170044,293.083313 1071.223633,290.418060 1083.691528,290.025208 
	C1098.282715,289.565460 1112.952393,288.273132 1127.459473,289.249847 
	C1148.906982,290.693848 1170.267456,293.699310 1190.956665,300.034027 
	C1192.486206,300.502319 1194.813477,302.127106 1194.825073,303.234680 
	C1195.054443,325.047089 1194.995850,346.862549 1194.995850,369.372772 
	C1188.751343,367.153198 1183.076782,364.867523 1177.242065,363.114868 
	C1162.363892,358.645721 1147.185669,356.120941 1131.645264,354.765076 
	C1116.530640,353.446350 1101.908447,354.916931 1087.242065,357.963928 
	C1081.366699,359.184570 1078.067017,363.423279 1076.440063,368.370514 
	C1074.812500,373.319305 1075.546753,379.208984 1080.118896,382.294098 
	C1085.937256,386.220337 1092.397461,389.626282 1099.057983,391.784790 
	C1113.230835,396.377991 1127.818237,399.684479 1142.025879,404.181274 
	C1150.347656,406.815186 1158.265503,410.725708 1166.678955,414.277283 
z"/>
<path fill="#04E772" opacity="1.000000" stroke="none" 
	d="
M1471.833496,492.000275 
	C1471.888916,514.327698 1471.908569,536.655396 1472.046753,558.982300 
	C1472.063232,561.658752 1471.099609,562.686035 1468.514526,563.268799 
	C1454.598145,566.406189 1440.870972,570.791138 1426.800781,572.731628 
	C1410.849487,574.931519 1394.578491,576.127319 1378.492920,575.754822 
	C1349.269287,575.078064 1320.617188,570.437744 1294.613403,555.847107 
	C1267.169556,540.448303 1248.556763,517.640625 1239.020996,487.575745 
	C1234.857910,474.449921 1232.196045,461.055756 1231.961304,447.216797 
	C1231.852051,440.783600 1230.838623,434.338043 1231.088013,427.931305 
	C1232.027710,403.813477 1235.575928,380.125000 1246.421387,358.249603 
	C1261.511230,327.813324 1286.145874,308.374664 1318.202637,298.065033 
	C1331.886841,293.664124 1345.880493,290.494171 1360.318848,290.034363 
	C1375.741821,289.543274 1391.206055,288.562256 1406.593140,289.206299 
	C1423.692993,289.922028 1440.526978,293.295807 1456.921753,298.456329 
	C1461.559082,299.915985 1466.180786,301.424957 1470.831787,302.918427 
	C1470.831787,327.090729 1470.831787,350.873962 1470.831787,374.136932 
	C1459.389282,370.696838 1448.005981,367.107422 1436.525879,363.860840 
	C1417.397461,358.451385 1397.707886,357.993652 1378.148682,359.253662 
	C1364.026123,360.163452 1350.351196,363.927277 1338.482178,372.733704 
	C1330.238647,378.850250 1324.766357,386.856842 1321.150879,396.045227 
	C1315.411011,410.632385 1314.062256,426.079529 1315.142090,441.560028 
	C1316.038696,454.414642 1318.311523,467.206940 1325.787476,478.198425 
	C1335.224243,492.072693 1348.921753,499.631165 1365.018188,502.937408 
	C1378.572266,505.721466 1392.184937,506.296844 1406.143311,505.304230 
	C1422.249512,504.158875 1437.791382,500.967346 1453.232056,496.829681 
	C1458.679199,495.369995 1463.871948,492.961273 1469.712769,491.190735 
	C1470.774292,491.597168 1471.303833,491.798737 1471.833496,492.000275 
z"/>
<path fill="#08574D" opacity="1.000000" stroke="none" 
	d="
M3359.021240,571.000000 
	C3355.214111,571.000000 3351.903809,571.000000 3348.148926,571.000000 
	C3348.148926,498.682343 3348.148926,426.617035 3348.148926,354.104675 
	C3321.973389,354.104675 3296.238281,354.104675 3270.253418,354.104675 
	C3270.253418,333.592102 3270.253418,313.526825 3270.253418,293.230438 
	C3349.453613,293.230438 3428.517578,293.230438 3507.790771,293.230438 
	C3507.790771,313.378113 3507.790771,333.325897 3507.790771,353.722595 
	C3482.148193,353.722595 3456.413086,353.722595 3430.232910,353.722595 
	C3430.232910,426.233368 3430.232910,498.298676 3430.232910,571.000000 
	C3406.367188,571.000000 3382.942627,571.000000 3359.021240,571.000000 
z"/>
<path fill="#04E772" opacity="1.000000" stroke="none" 
	d="
M2489.000000,434.000000 
	C2489.000000,458.800354 2489.000000,483.100739 2489.000000,507.886505 
	C2530.691406,507.886505 2572.079590,507.886505 2613.732422,507.886505 
	C2613.732422,529.094788 2613.732422,549.817200 2613.732422,570.770142 
	C2544.955566,570.770142 2476.358887,570.770142 2407.380859,570.770142 
	C2407.380859,478.477722 2407.380859,386.100220 2407.380859,293.361145 
	C2434.237305,293.361145 2461.292725,293.361145 2489.000000,293.361145 
	C2489.000000,340.003418 2489.000000,386.751709 2489.000000,434.000000 
z"/>
<path fill="#04E772" opacity="1.000000" stroke="none" 
	d="
M184.999435,632.833435 
	C161.869659,632.917053 138.723663,633.640442 115.155525,632.070679 
	C121.752831,612.794434 127.992249,594.563782 134.980621,576.158630 
	C144.490540,577.901062 153.327194,579.443604 162.136322,576.711243 
	C165.513306,575.663757 166.467468,576.865906 167.433823,579.707031 
	C171.266754,590.975891 175.404861,602.141357 179.206161,613.420532 
	C181.361511,619.815918 183.082703,626.357605 184.999435,632.833435 
z"/>
<path fill="#04E772" opacity="1.000000" stroke="none" 
	d="
M162.000000,415.192566 
	C162.000000,446.941498 162.000000,478.215881 162.000000,509.744293 
	C156.339417,509.744293 151.064651,509.744293 145.393463,509.744293 
	C145.393463,473.350189 145.393463,436.819611 145.393463,400.291748 
	C158.001572,401.658081 161.986298,405.112732 162.000000,415.192566 
z"/>
<path fill="#04E772" opacity="1.000000" stroke="none" 
	d="
M147.382355,527.008789 
	C154.114212,523.969360 164.228790,527.808105 167.188080,534.457947 
	C170.829056,542.639526 168.670441,551.378601 161.278900,555.914917 
	C154.933105,559.809448 145.416046,558.314331 140.951279,552.721436 
	C135.298782,545.640686 135.446899,537.020691 141.497177,531.070984 
	C143.098343,529.496460 145.138397,528.368347 147.382355,527.008789 
z"/>
<path fill="#04E772" opacity="1.000000" stroke="none" 
	d="
M185.413528,632.904907 
	C183.082703,626.357605 181.361511,619.815918 179.206161,613.420532 
	C175.404861,602.141357 171.266754,590.975891 167.433823,579.707031 
	C166.467468,576.865906 165.513306,575.663757 162.136322,576.711243 
	C153.327194,579.443604 144.490540,577.901062 135.307083,575.971191 
	C135.948349,571.980957 137.356567,569.139954 141.957932,572.887024 
	C143.073105,573.795105 145.043777,574.088745 146.572098,573.979614 
	C154.119843,573.440491 162.400345,576.896790 169.167694,569.451050 
	C176.544144,590.368591 183.753693,610.812805 190.722595,631.729919 
	C190.263092,632.365906 190.108078,632.576111 190.016891,632.833435 
	C188.620468,632.881042 187.224045,632.928650 185.413528,632.904907 
z"/>
<path fill="#04E772" opacity="1.000000" stroke="none" 
	d="
M1471.900024,491.672363 
	C1471.303833,491.798737 1470.774292,491.597168 1470.099243,491.142670 
	C1470.624756,491.041321 1471.295654,491.192871 1471.900024,491.672363 
z"/>
<path fill="#04E772" opacity="1.000000" stroke="none" 
	d="
M190.272736,632.864380 
	C190.108078,632.576111 190.263092,632.365906 190.657654,632.111084 
	C190.731766,632.311340 190.630188,632.603271 190.272736,632.864380 
z"/>
<path fill="#FFFFFF" opacity="1.000000" stroke="none" 
	d="
M1920.340820,359.003906 
	C1931.460327,359.780273 1942.468140,359.118500 1952.686279,361.647247 
	C1972.349243,366.513336 1981.961304,381.194153 1986.086060,400.351105 
	C1989.176636,414.705383 1989.564819,429.189484 1988.850220,443.666046 
	C1988.224731,456.337341 1986.155762,468.886810 1980.192627,480.439270 
	C1972.461182,495.417145 1959.467285,502.455627 1943.486938,504.975800 
	C1932.178467,506.759155 1921.056152,506.008881 1909.890381,503.147400 
	C1893.761719,499.014038 1883.575317,488.924286 1878.013062,473.621246 
	C1871.820801,456.585083 1871.130859,438.805939 1872.228760,421.085388 
	C1872.957153,409.330414 1874.798462,397.603302 1879.669678,386.435638 
	C1885.650391,372.724548 1895.964966,364.912018 1909.852417,361.038818 
	C1913.126587,360.125610 1916.529053,359.672028 1920.340820,359.003906 
z"/>
<path fill="#FFFFFF" opacity="1.000000" stroke="none" 
	d="
M2219.753906,504.350433 
	C2201.146729,501.095947 2189.170410,490.760284 2182.957031,473.377258 
	C2176.911133,456.462463 2176.180908,438.894440 2177.220703,421.346924 
	C2177.917480,409.586487 2179.816162,397.872223 2184.524414,386.672455 
	C2190.298096,372.938477 2200.479736,364.469452 2214.324951,361.243744 
	C2230.924072,357.376312 2247.719971,357.115356 2264.032227,363.901062 
	C2274.943359,368.440002 2282.491455,376.226257 2286.879395,386.897552 
	C2294.701904,405.921600 2294.832031,426.082672 2293.780273,446.100281 
	C2293.144043,458.208618 2290.883057,470.388153 2284.890137,481.279633 
	C2278.025879,493.755615 2267.180176,501.008667 2253.348389,504.013489 
	C2242.298096,506.414062 2231.229248,506.616180 2219.753906,504.350433 
z"/>
<path fill="#FFFFFF" opacity="1.000000" stroke="none" 
	d="
M3162.971680,424.063293 
	C3166.541748,433.741425 3170.084229,443.020386 3173.799805,452.752167 
	C3153.296143,452.752167 3133.769043,452.752167 3113.921631,452.752167 
	C3123.691895,427.176758 3133.337646,401.927185 3142.983398,376.677612 
	C3143.580811,376.705383 3144.177979,376.733154 3144.775391,376.760925 
	C3150.831787,392.395325 3156.887939,408.029755 3162.971680,424.063293 
z"/>
</svg>