<?xml version="1.0" encoding="UTF-8"?>
<svg id="Layer_1" data-name="Layer 1" xmlns="http://www.w3.org/2000/svg" viewBox="0 0 924.48 227.19">
  <defs>
    <style>
      .cls-1 {
        font-family: Kanit-Bold, Kanit;
        font-size: 103.37px;
        font-weight: 700;
      }

      .cls-2 {
        stroke-width: 0px;
      }

      .cls-2, .cls-3 {
        fill: #04e772;
      }

      .cls-4 {
        fill: #08574d;
      }
    </style>
  </defs>
  <g>
    <path class="cls-2" d="M198.67,88.02c-3.69-1.37-7.18-2.68-10.68-3.97-24.37-8.99-48.75-17.96-73.11-26.99-1.83-.68-3.45-.66-5.26.01-18.49,6.87-37.01,13.67-55.51,20.5-9.18,3.39-18.35,6.79-27.52,10.19-.15.05-.28.15-.59.33,4.81,1.79,9.48,3.55,14.16,5.27,23.07,8.51,46.15,16.99,69.21,25.52,2.02.75,3.89.72,5.91-.03,17.69-6.57,35.4-13.09,53.11-19.62,9.43-3.48,18.86-6.94,28.29-10.41.6-.22,1.19-.47,2-.8Z"/>
    <path class="cls-2" d="M158.98,107.1c-9.06,3.34-17.88,6.58-26.7,9.83-5.42,2-10.84,3.97-16.25,6-2.52.94-4.98.94-7.51,0-13.83-5.12-27.68-10.21-41.52-15.31-.4-.15-.79-.29-1.46-.54v1.8c0,7.17.21,14.35-.06,21.52-.26,6.89,2.78,11.92,7.9,16,6.39,5.09,13.84,7.83,21.73,9.43,15.45,3.12,30.66,2.41,45.44-3.38,5.84-2.29,11.14-5.49,15.04-10.58,2.25-2.93,3.43-6.22,3.4-9.97-.06-7.6-.02-15.2-.02-22.8,0-.58,0-1.17,0-2Z"/>
    <path class="cls-2" d="M27.35,151.56h18.11c-1.75-5.01-3.46-9.91-5.21-14.93-2.53,1.24-5,1.36-7.65-.04-1.74,4.97-3.46,9.86-5.25,14.97Z"/>
    <path class="cls-2" d="M34.56,95.75c0,8.89,0,17.53,0,26.2h3.81c0-.46,0-.96,0-1.47,0-7.11-.07-14.23.05-21.34.03-1.64-.42-2.47-1.98-2.78-.56-.11-1.1-.36-1.87-.62Z"/>
    <path class="cls-2" d="M40.1,129.72c0-2.08-1.54-3.64-3.63-3.67-2.05-.03-3.82,1.7-3.8,3.73.01,2.02,1.65,3.67,3.67,3.7,2.06.03,3.76-1.67,3.76-3.76Z"/>
  </g>
  <text class="cls-1" transform="translate(235.28 136.59)"><tspan class="cls-3" x="0" y="0">SCHOOL</tspan><tspan class="cls-4" x="392.18" y="0" xml:space="preserve"> GATE</tspan></text>
</svg>